<svg width="60" height="60" viewBox="0 0 60 60" fill="none" xmlns="http://www.w3.org/2000/svg">
<path d="M20.4951 17.5C20.2187 17.5 20 17.7058 20 17.9666V42.0319C20 42.2925 20.2195 42.5 20.4951 42.5H39.5065C39.7821 42.5 40 42.2932 40 42.0319V17.9666C40 17.7053 39.7831 17.5 39.5065 17.5H20.4951ZM20.9902 18.4362H39.011V41.5654H20.9902V18.4362ZM23.6641 20.546C23.3877 20.546 23.169 20.7518 23.169 21.0126C23.169 21.2732 23.3885 21.4807 23.6641 21.4807H36.3361C36.6117 21.4807 36.8312 21.2732 36.8312 21.0126C36.8312 20.752 36.6125 20.546 36.3361 20.546H23.6641ZM23.6641 23.5405C23.3885 23.5405 23.169 23.748 23.169 24.0086V32.996C23.169 33.2566 23.3885 33.4641 23.6641 33.4641H36.3361C36.6117 33.4641 36.8312 33.2566 36.8312 32.996V24.0086C36.8312 23.748 36.6117 23.5405 36.3361 23.5405H23.6641ZM24.1573 24.4765H35.8424V30.3708L33.5184 28.1735C33.3227 27.9884 33.014 27.9892 32.8191 28.1735L31.5848 29.339L28.7657 26.6743C28.57 26.4893 28.2629 26.4893 28.068 26.6743L24.1583 30.371V24.7585L24.1573 24.4765ZM28.4159 27.6673L31.2342 30.332C31.4299 30.517 31.7386 30.5163 31.9335 30.332L33.1678 29.1632L35.8414 31.6929V32.5285L24.158 32.5301V31.6944L28.2055 27.8659L28.4159 27.6673ZM31.5958 35.5232C31.5907 35.524 31.5796 35.5248 31.5788 35.5248H23.6631C23.3867 35.5248 23.168 35.7306 23.168 35.9914C23.168 36.2519 23.3875 36.4595 23.6631 36.4595H33.5074C33.5124 36.4587 33.5235 36.4579 33.5243 36.4579H36.3358C36.6122 36.4579 36.8309 36.2521 36.8309 35.9913C36.8309 35.7308 36.6114 35.5232 36.3358 35.5232H31.5958ZM23.664 38.5193C23.3885 38.5193 23.1689 38.7268 23.1689 38.9874C23.1689 39.248 23.3885 39.4555 23.664 39.4555H36.3361C36.6117 39.4555 36.8312 39.248 36.8312 38.9874C36.8312 38.7268 36.6117 38.5193 36.3361 38.5193H23.664Z" fill="#607D8B"/>
<rect x="0.5" y="0.5" width="59" height="59" rx="9.5" stroke="#607D8B"/>
</svg>
