<svg width="60" height="60" viewBox="0 0 60 60" fill="none" xmlns="http://www.w3.org/2000/svg">
<rect width="60" height="60" rx="10" fill="#607D8B"/>
<path d="M39.6429 39.2857V30C39.6429 29.9053 39.6052 29.8144 39.5383 29.7474C39.4713 29.6805 39.3804 29.6429 39.2857 29.6429H30.3571V20.3571C30.3571 20.2624 30.3195 20.1716 30.2526 20.1046C30.1856 20.0376 30.0947 20 30 20H20.7143C20.5171 20 20.3571 20.1599 20.3571 20.3571V39.2857C20.1599 39.2857 20 39.4456 20 39.6429C20 39.8401 20.1599 40 20.3571 40H23.9286V36.7857C23.9286 36.5885 24.0885 36.4286 24.2857 36.4286H26.4286C26.5233 36.4286 26.6142 36.4662 26.6811 36.5332C26.7481 36.6001 26.7857 36.691 26.7857 36.7857V40H39.6429C39.8401 40 40 39.8401 40 39.6429C40 39.4456 39.8401 39.2857 39.6429 39.2857ZM23.9286 35.3571C23.9286 35.4518 23.8909 35.5427 23.824 35.6097C23.757 35.6767 23.6661 35.7143 23.5714 35.7143H22.1429C21.9456 35.7143 21.7857 35.5544 21.7857 35.3571V33.9286C21.7857 33.7313 21.9456 33.5714 22.1429 33.5714H23.5714C23.6661 33.5714 23.757 33.6091 23.824 33.676C23.8909 33.743 23.9286 33.8339 23.9286 33.9286V35.3571ZM23.9286 32.8571C23.9286 32.9518 23.8909 33.0427 23.824 33.1097C23.757 33.1767 23.6661 33.2143 23.5714 33.2143H22.1429C21.9456 33.2143 21.7857 33.0544 21.7857 32.8571V31.4286C21.7857 31.2313 21.9456 31.0714 22.1429 31.0714H23.5714C23.6661 31.0714 23.757 31.1091 23.824 31.176C23.8909 31.243 23.9286 31.3339 23.9286 31.4286V32.8571ZM23.9286 30.3571C23.9286 30.4518 23.8909 30.5427 23.824 30.6097C23.757 30.6767 23.6661 30.7143 23.5714 30.7143H22.1429C21.9456 30.7143 21.7857 30.5544 21.7857 30.3571V28.9286C21.7857 28.7313 21.9456 28.5714 22.1429 28.5714H23.5714C23.6661 28.5714 23.757 28.6091 23.824 28.676C23.8909 28.743 23.9286 28.8339 23.9286 28.9286V30.3571ZM23.9286 27.8571C23.9286 27.9518 23.8909 28.0427 23.824 28.1097C23.757 28.1767 23.6661 28.2143 23.5714 28.2143H22.1429C21.9456 28.2143 21.7857 28.0544 21.7857 27.8571V26.4286C21.7857 26.2313 21.9456 26.0714 22.1429 26.0714H23.5714C23.6661 26.0714 23.757 26.1091 23.824 26.176C23.8909 26.243 23.9286 26.3339 23.9286 26.4286V27.8571ZM23.9286 25.3571C23.9286 25.4518 23.8909 25.5427 23.824 25.6097C23.757 25.6767 23.6661 25.7143 23.5714 25.7143H22.1429C21.9456 25.7143 21.7857 25.5544 21.7857 25.3571V23.9286C21.7857 23.7313 21.9456 23.5714 22.1429 23.5714H23.5714C23.6661 23.5714 23.757 23.6091 23.824 23.676C23.8909 23.743 23.9286 23.8339 23.9286 23.9286V25.3571ZM24.4643 21.0714C24.4643 20.8742 24.6242 20.7143 24.8214 20.7143C25.0187 20.7143 25.1786 20.8742 25.1786 21.0714V21.4286H25.5357V21.0714C25.5357 20.8742 25.6956 20.7143 25.8929 20.7143C26.0901 20.7143 26.25 20.8742 26.25 21.0714V22.5C26.25 22.6972 26.0901 22.8571 25.8929 22.8571C25.6956 22.8571 25.5357 22.6972 25.5357 22.5V22.1429H25.1786V22.5C25.1786 22.6972 25.0187 22.8571 24.8214 22.8571C24.6242 22.8571 24.4643 22.6972 24.4643 22.5V21.0714ZM26.4286 35.3571C26.4286 35.4518 26.3909 35.5427 26.324 35.6097C26.257 35.6767 26.1661 35.7143 26.0714 35.7143H24.6429C24.4456 35.7143 24.2857 35.5544 24.2857 35.3571V33.9286C24.2857 33.7313 24.4456 33.5714 24.6429 33.5714H26.0714C26.1661 33.5714 26.257 33.6091 26.324 33.676C26.3909 33.743 26.4286 33.8339 26.4286 33.9286V35.3571ZM26.4286 32.8571C26.4286 32.9518 26.3909 33.0427 26.324 33.1097C26.257 33.1767 26.1661 33.2143 26.0714 33.2143H24.6429C24.4456 33.2143 24.2857 33.0544 24.2857 32.8571V31.4286C24.2857 31.2313 24.4456 31.0714 24.6429 31.0714H26.0714C26.1661 31.0714 26.257 31.1091 26.324 31.176C26.3909 31.243 26.4286 31.3339 26.4286 31.4286V32.8571ZM26.4286 30.3571C26.4286 30.4518 26.3909 30.5427 26.324 30.6097C26.257 30.6767 26.1661 30.7143 26.0714 30.7143H24.6429C24.4456 30.7143 24.2857 30.5544 24.2857 30.3571V28.9286C24.2857 28.7313 24.4456 28.5714 24.6429 28.5714H26.0714C26.1661 28.5714 26.257 28.6091 26.324 28.676C26.3909 28.743 26.4286 28.8339 26.4286 28.9286V30.3571ZM26.4286 27.8571C26.4286 27.9518 26.3909 28.0427 26.324 28.1097C26.257 28.1767 26.1661 28.2143 26.0714 28.2143H24.6429C24.4456 28.2143 24.2857 28.0544 24.2857 27.8571V26.4286C24.2857 26.2313 24.4456 26.0714 24.6429 26.0714H26.0714C26.1661 26.0714 26.257 26.1091 26.324 26.176C26.3909 26.243 26.4286 26.3339 26.4286 26.4286V27.8571ZM26.4286 25.3571C26.4286 25.4518 26.3909 25.5427 26.324 25.6097C26.257 25.6767 26.1661 25.7143 26.0714 25.7143H24.6429C24.4456 25.7143 24.2857 25.5544 24.2857 25.3571V23.9286C24.2857 23.7313 24.4456 23.5714 24.6429 23.5714H26.0714C26.1661 23.5714 26.257 23.6091 26.324 23.676C26.3909 23.743 26.4286 23.8339 26.4286 23.9286V25.3571ZM28.9286 35.3571C28.9286 35.4518 28.8909 35.5427 28.824 35.6097C28.757 35.6767 28.6661 35.7143 28.5714 35.7143H27.1429C26.9456 35.7143 26.7857 35.5544 26.7857 35.3571V33.9286C26.7857 33.7313 26.9456 33.5714 27.1429 33.5714H28.5714C28.6661 33.5714 28.757 33.6091 28.824 33.676C28.8909 33.743 28.9286 33.8339 28.9286 33.9286V35.3571ZM28.9286 32.8571C28.9286 32.9518 28.8909 33.0427 28.824 33.1097C28.757 33.1767 28.6661 33.2143 28.5714 33.2143H27.1429C26.9456 33.2143 26.7857 33.0544 26.7857 32.8571V31.4286C26.7857 31.2313 26.9456 31.0714 27.1429 31.0714H28.5714C28.6661 31.0714 28.757 31.1091 28.824 31.176C28.8909 31.243 28.9286 31.3339 28.9286 31.4286V32.8571ZM28.9286 30.3571C28.9286 30.4518 28.8909 30.5427 28.824 30.6097C28.757 30.6767 28.6661 30.7143 28.5714 30.7143H27.1429C26.9456 30.7143 26.7857 30.5544 26.7857 30.3571V28.9286C26.7857 28.7313 26.9456 28.5714 27.1429 28.5714H28.5714C28.6661 28.5714 28.757 28.6091 28.824 28.676C28.8909 28.743 28.9286 28.8339 28.9286 28.9286V30.3571ZM28.9286 27.8571C28.9286 27.9518 28.8909 28.0427 28.824 28.1097C28.757 28.1767 28.6661 28.2143 28.5714 28.2143H27.1429C26.9456 28.2143 26.7857 28.0544 26.7857 27.8571V26.4286C26.7857 26.2313 26.9456 26.0714 27.1429 26.0714H28.5714C28.6661 26.0714 28.757 26.1091 28.824 26.176C28.8909 26.243 28.9286 26.3339 28.9286 26.4286V27.8571ZM28.9286 25.3571C28.9286 25.4518 28.8909 25.5427 28.824 25.6097C28.757 25.6767 28.6661 25.7143 28.5714 25.7143H27.1429C26.9456 25.7143 26.7857 25.5544 26.7857 25.3571V23.9286C26.7857 23.7313 26.9456 23.5714 27.1429 23.5714H28.5714C28.6661 23.5714 28.757 23.6091 28.824 23.676C28.8909 23.743 28.9286 23.8339 28.9286 23.9286V25.3571ZM33.2143 37.8571C33.2143 37.9519 33.1767 38.0427 33.1097 38.1097C33.0427 38.1767 32.9518 38.2143 32.8571 38.2143H31.4286C31.2313 38.2143 31.0714 38.0544 31.0714 37.8571V36.4286C31.0714 36.2313 31.2313 36.0714 31.4286 36.0714H32.8571C32.9518 36.0714 33.0427 36.1091 33.1097 36.176C33.1767 36.243 33.2143 36.3339 33.2143 36.4286V37.8571ZM33.2143 35.3571C33.2143 35.4518 33.1767 35.5427 33.1097 35.6097C33.0427 35.6767 32.9518 35.7143 32.8571 35.7143H31.4286C31.2313 35.7143 31.0714 35.5544 31.0714 35.3571V33.9286C31.0714 33.7313 31.2313 33.5714 31.4286 33.5714H32.8571C32.9518 33.5714 33.0427 33.6091 33.1097 33.676C33.1767 33.743 33.2143 33.8339 33.2143 33.9286V35.3571ZM33.2143 32.8571C33.2143 32.9518 33.1767 33.0427 33.1097 33.1097C33.0427 33.1767 32.9518 33.2143 32.8571 33.2143H31.4286C31.2313 33.2143 31.0714 33.0544 31.0714 32.8571V31.4286C31.0714 31.2313 31.2313 31.0714 31.4286 31.0714H32.8571C32.9518 31.0714 33.0427 31.1091 33.1097 31.176C33.1767 31.243 33.2143 31.3339 33.2143 31.4286V32.8571ZM35.7143 37.8571C35.7143 37.9519 35.6767 38.0427 35.6097 38.1097C35.5427 38.1767 35.4518 38.2143 35.3571 38.2143H33.9286C33.7313 38.2143 33.5714 38.0544 33.5714 37.8571V36.4286C33.5714 36.2313 33.7313 36.0714 33.9286 36.0714H35.3571C35.4518 36.0714 35.5427 36.1091 35.6097 36.176C35.6767 36.243 35.7143 36.3339 35.7143 36.4286V37.8571ZM35.7143 35.3571C35.7143 35.4518 35.6767 35.5427 35.6097 35.6097C35.5427 35.6767 35.4518 35.7143 35.3571 35.7143H33.9286C33.7313 35.7143 33.5714 35.5544 33.5714 35.3571V33.9286C33.5714 33.7313 33.7313 33.5714 33.9286 33.5714H35.3571C35.4518 33.5714 35.5427 33.6091 35.6097 33.676C35.6767 33.743 35.7143 33.8339 35.7143 33.9286V35.3571ZM35.7143 32.8571C35.7143 32.9518 35.6767 33.0427 35.6097 33.1097C35.5427 33.1767 35.4518 33.2143 35.3571 33.2143H33.9286C33.7313 33.2143 33.5714 33.0544 33.5714 32.8571V31.4286C33.5714 31.2313 33.7313 31.0714 33.9286 31.0714H35.3571C35.4518 31.0714 35.5427 31.1091 35.6097 31.176C35.6767 31.243 35.7143 31.3339 35.7143 31.4286V32.8571ZM38.2143 37.8571C38.2143 37.9519 38.1767 38.0427 38.1097 38.1097C38.0427 38.1767 37.9519 38.2143 37.8571 38.2143H36.4286C36.2313 38.2143 36.0714 38.0544 36.0714 37.8571V36.4286C36.0714 36.2313 36.2313 36.0714 36.4286 36.0714H37.8571C37.9519 36.0714 38.0427 36.1091 38.1097 36.176C38.1767 36.243 38.2143 36.3339 38.2143 36.4286V37.8571ZM38.2143 35.3571C38.2143 35.4518 38.1767 35.5427 38.1097 35.6097C38.0427 35.6767 37.9519 35.7143 37.8571 35.7143H36.4286C36.2313 35.7143 36.0714 35.5544 36.0714 35.3571V33.9286C36.0714 33.7313 36.2313 33.5714 36.4286 33.5714H37.8571C37.9519 33.5714 38.0427 33.6091 38.1097 33.676C38.1767 33.743 38.2143 33.8339 38.2143 33.9286V35.3571ZM38.2143 32.8571C38.2143 32.9518 38.1767 33.0427 38.1097 33.1097C38.0427 33.1767 37.9519 33.2143 37.8571 33.2143H36.4286C36.2313 33.2143 36.0714 33.0544 36.0714 32.8571V31.4286C36.0714 31.2313 36.2313 31.0714 36.4286 31.0714H37.8571C37.9519 31.0714 38.0427 31.1091 38.1097 31.176C38.1767 31.243 38.2143 31.3339 38.2143 31.4286V32.8571Z" fill="#F7F7F7"/>
</svg>
