<svg width="61" height="60" viewBox="0 0 61 60" fill="none" xmlns="http://www.w3.org/2000/svg">
<path d="M30.4802 39.3333H30.4814C30.6319 39.3337 30.794 39.2681 30.9272 39.1208C30.9276 39.1204 30.928 39.12 30.9284 39.1195L38.2682 30.864L38.2697 30.8623C38.7614 30.313 39.155 29.6559 39.4246 28.9273C39.6884 28.2143 39.8275 27.4485 39.8332 26.673L39.8331 26.622C39.832 25.0278 39.2694 23.5114 38.2874 22.4004L38.2873 22.4003C37.3078 21.2917 35.9953 20.6797 34.6416 20.6669C33.2881 20.654 31.9674 21.2409 30.9719 22.3299L30.4837 22.8639L29.9914 22.3338C28.9928 21.2588 27.6751 20.6842 26.3274 20.705L26.3273 20.705C24.9796 20.7256 23.6749 21.3407 22.7016 22.4476L22.7016 22.4477C21.7262 23.5567 21.1681 25.067 21.1667 26.6545L30.4802 39.3333ZM30.4802 39.3333C30.3321 39.3333 30.1722 39.268 30.0411 39.1214M30.4802 39.3333L30.0411 39.1214M30.0411 39.1214C30.0411 39.1214 30.0411 39.1213 30.0411 39.1213M30.0411 39.1214L30.0411 39.1213M30.0411 39.1213L22.6946 30.8652C22.694 30.8646 22.6935 30.8639 22.6929 30.8633C21.7204 29.7521 21.1654 28.2414 21.1667 26.6545L30.0411 39.1213Z" stroke="#607D8B" stroke-width="1.33333"/>
<rect x="1" y="0.5" width="59" height="59" rx="9.5" stroke="#607D8B"/>
</svg>
