<svg width="60" height="60" viewBox="0 0 60 60" fill="none" xmlns="http://www.w3.org/2000/svg">
<rect width="60" height="60" rx="10" fill="#607D8B"/>
<path d="M31.1852 18.5816C31.1852 19.2941 30.6077 19.8717 29.8953 19.8717C29.1828 19.8717 28.6052 19.2941 28.6052 18.5816C28.6052 17.8692 29.1828 17.2917 29.8953 17.2917C30.6077 17.2917 31.1852 17.8692 31.1852 18.5816Z" fill="#F7F7F7"/>
<path d="M27.0156 23.5017C27.1056 23.5017 27.1956 23.4718 27.2557 23.4416L27.3756 24.6116C27.3756 24.7016 27.4655 24.7617 27.5555 24.7916L28.6056 24.9115L28.1256 28.9015C25.0356 29.7116 22.7256 32.5316 22.7256 35.8915C22.7256 39.8815 25.9656 43.0915 29.9256 43.0915C33.8857 43.0915 37.1256 39.8515 37.1256 35.8915C37.1256 32.5015 34.7856 29.6815 31.6656 28.9015L31.0955 24.4915L32.5955 24.6715H32.6255C32.6554 24.6715 32.7154 24.6416 32.7454 24.6114C32.7753 24.5815 32.8054 24.5214 32.8054 24.4614L32.6554 22.9913H32.6853C32.9854 23.0813 33.2554 22.9013 33.3453 22.6013C33.4054 22.3012 33.2553 22.0312 32.9552 21.9413L32.5353 21.8213L32.4453 21.0113C32.4453 20.9213 32.3553 20.8613 32.2653 20.8313L31.4559 20.7416C31.2458 20.4115 31.0658 20.2017 30.7358 20.2017H29.0858C28.6957 20.2017 28.4858 20.5317 28.1857 21.0117C28.156 21.0416 28.1259 21.0716 28.1259 21.1017L27.256 21.0117C27.1959 21.0117 27.1361 21.0117 27.1059 21.0718C27.076 21.1017 27.0459 21.1618 27.0459 21.2218L27.1658 22.2118L26.686 22.5416C26.4459 22.7216 26.416 23.0815 26.596 23.2916C26.7159 23.4417 26.8659 23.5017 27.016 23.5017L27.0156 23.5017ZM32.0857 21.1916L32.4157 24.2216L31.0956 24.0715L30.7656 21.0416L32.0857 21.1916ZM31.2156 30.2816L31.2455 31.1216V31.1516L31.1256 32.2017C31.1256 32.2316 31.1256 32.2617 31.1555 32.2917L31.2754 32.4716C31.3355 32.5616 31.4255 32.5616 31.5154 32.5015L31.8455 32.2015C31.9354 32.1115 32.0556 32.1715 32.0855 32.2615V32.3216C32.1154 32.3816 32.1755 32.4415 32.2355 32.4415H32.5955H32.6555L32.9556 32.3216C33.0755 32.2615 33.1956 32.3816 33.1657 32.5015L32.9857 33.0414C32.9558 33.1015 32.8958 33.1314 32.8357 33.1613H32.4157H32.3556L31.8756 33.0416H31.7557L31.5157 33.1616C31.4857 33.1915 31.4257 33.1915 31.3958 33.1616L31.0657 33.0115C31.0358 32.9816 30.9758 32.9816 30.9458 33.0115L30.5258 33.2815C30.4959 33.3114 30.4658 33.3714 30.4658 33.4014L30.5258 33.8814C30.5258 33.9415 30.4959 34.0013 30.4359 34.0315L30.1358 34.1815C30.0458 34.2416 30.0159 34.3615 30.1059 34.4215L30.316 34.6316C30.3459 34.6616 30.4059 34.6917 30.466 34.6616L30.8561 34.5716H30.946L31.126 34.6616C31.1861 34.6915 31.306 34.7815 31.4261 34.8717C31.4862 34.9317 31.6061 34.9016 31.6362 34.8417C31.6661 34.8118 31.6963 34.7817 31.7561 34.7817L32.0562 34.7518C32.0861 34.7518 32.1163 34.7218 32.1462 34.7218L32.1761 34.6919C32.2661 34.6318 32.3862 34.662 32.4161 34.752L32.5662 35.172C32.5662 35.172 32.5662 35.2019 32.5961 35.2019L32.7761 35.412C32.8361 35.472 32.806 35.562 32.7461 35.6221L32.3557 36.0417C32.2956 36.1017 32.2056 36.1017 32.1456 36.0417L31.7258 35.6817C31.6958 35.6817 31.6958 35.6518 31.6958 35.6518L31.1258 35.4118H31.0657L30.3157 35.3517H30.2557L29.6256 35.5317C29.4155 35.5917 29.2656 35.7418 29.2056 35.9517L29.0256 36.4016C28.9656 36.5516 28.9957 36.7316 29.0555 36.8515L29.2956 37.3615C29.3855 37.5716 29.5957 37.6915 29.8055 37.7214L30.3756 37.7815C30.4055 37.7815 30.4055 37.7815 30.4356 37.8114L30.7657 37.9914C30.7956 38.0213 30.8257 38.0514 30.8556 38.1113L30.9157 38.6813C30.9456 38.8914 30.9758 39.0714 31.0957 39.2514L31.3656 39.7613C31.3656 39.7913 31.3955 39.7913 31.4257 39.8214L31.8756 40.1514C31.9656 40.2115 32.0556 40.1813 32.1156 40.1215L32.2657 39.9114C32.2657 39.8815 32.2956 39.8513 32.2956 39.8513L32.6256 39.0417V39.0118L32.7455 37.8119V37.7518L32.9855 37.2419C33.0155 37.1818 33.0755 37.1519 33.1356 37.1519L33.9756 37.2718C34.0356 37.2718 34.0656 37.2718 34.0955 37.2117L34.2455 37.0617C34.3056 37.0016 34.3056 36.9116 34.2455 36.8516L33.8858 36.3418C33.8258 36.2518 33.8559 36.1317 33.9758 36.1018L34.1258 36.0719C34.1558 36.0719 34.3958 36.0419 34.4558 36.0419H34.4858L34.8457 36.102C34.9656 36.1319 34.9958 36.192 34.9958 36.282L34.9058 37.3321V37.3921L35.1757 38.1421C34.3058 40.182 32.2657 41.592 29.8958 41.592C28.7858 41.592 27.7358 41.262 26.8658 40.7221L27.1659 39.3722C27.226 39.0422 27.1958 38.6822 27.046 38.3822L26.6256 37.4219C26.5655 37.302 26.4755 37.2419 26.3556 37.2118L24.7656 36.9717C24.6156 36.9418 24.5555 36.7616 24.6457 36.6417L24.9157 36.3117C25.0057 36.2217 25.1258 36.1617 25.2457 36.1918L25.8456 36.2818H26.0557L26.8658 36.1018C26.8957 36.1018 26.9259 36.1018 26.9558 36.0719L27.4957 35.8019C27.5857 35.7419 27.6756 35.6519 27.6756 35.532L27.8857 33.942C27.9157 33.7919 27.8257 33.6419 27.6756 33.5821L27.4057 33.4921C27.2858 33.432 27.1657 33.3121 27.1657 33.1621C27.1657 32.9821 27.3157 32.832 27.4957 32.8021L27.8857 32.7722C28.0657 32.7423 28.2157 32.5922 28.2157 32.4123L28.1858 31.9322L28.1256 30.9717C28.1256 30.8216 28.0356 30.7017 27.8855 30.6716L27.6754 30.5816C28.3654 30.2815 29.1455 30.1317 29.9254 30.1317C30.3755 30.1317 30.7955 30.1616 31.2155 30.2817L31.2156 30.2816ZM29.3858 28.6615L29.8658 24.7916L30.3459 28.6615C30.1958 28.6615 30.0458 28.6316 29.896 28.6316C29.7457 28.6615 29.5657 28.6615 29.3858 28.6615ZM30.3756 21.0715L30.7056 24.1015L29.4456 24.5215L29.1156 21.4915L30.3756 21.0715ZM28.7557 21.5516L29.0857 24.5815L27.7657 24.4315L27.4357 21.4015L28.7557 21.5516Z" fill="#F7F7F7"/>
<path d="M39.0455 31.9916C37.9054 29.3216 35.6856 27.3117 32.9255 26.4116C32.6555 26.3216 32.3856 26.4717 32.3256 26.7117C32.2356 26.9816 32.3856 27.2516 32.6256 27.3116C35.1156 28.1217 37.1256 29.9517 38.1456 32.3515C40.0656 36.8815 37.9355 42.1615 33.4056 44.0815C31.2157 45.0115 28.7857 45.0416 26.5656 44.1416C24.3455 43.2415 22.6055 41.5316 21.6756 39.3415C19.7855 34.9315 21.7656 29.8315 26.0557 27.7615L25.8757 28.2415C25.7857 28.4816 25.9056 28.7814 26.1457 28.8716C26.2057 28.9016 26.2656 28.9016 26.3256 28.9016C26.5056 28.9016 26.6856 28.7817 26.7756 28.6015L27.4057 27.0115C27.4956 26.7714 27.3757 26.4716 27.1357 26.3814L25.5457 25.7513C25.3057 25.6613 25.0058 25.7812 24.9156 26.0212C24.8256 26.2612 24.9455 26.5611 25.1856 26.6513L25.6955 26.8614C20.9256 29.1415 18.7055 34.8114 20.8057 39.7314C21.8558 42.1614 23.7757 44.0515 26.2357 45.0415C27.4356 45.5215 28.6958 45.7615 29.9557 45.7615C31.2758 45.7615 32.5958 45.4916 33.8256 44.9816C38.8356 42.8515 41.2056 37.0316 39.0455 31.9916L39.0455 31.9916Z" fill="#F7F7F7"/>
</svg>
