<svg width="61" height="60" viewBox="0 0 61 60" fill="none" xmlns="http://www.w3.org/2000/svg">
<rect x="0.5" width="60" height="60" rx="10" fill="#607D8B"/>
<path d="M27.3486 20.5714C27.2461 20.3365 27.4423 20.089 27.7877 20.0191C28.1329 19.9493 28.4967 20.0828 28.5995 20.3178C29.3947 22.1218 29.7938 23.6817 29.6207 24.9355C29.4493 26.1785 28.7314 27.1245 27.3145 27.715C27.5316 30.9414 27.9805 34.4652 27.9805 37.6715C27.9832 38.2853 27.6754 38.8452 27.1908 39.2581C26.6795 39.6943 25.9643 39.9725 25.188 39.9967C24.2755 39.9956 23.5585 39.7505 22.9816 39.2649C22.4943 38.8549 22.1799 38.2951 22.1803 37.6722C22.1803 34.4647 22.6294 30.941 22.8466 27.7149C21.4292 27.1243 20.7113 26.1786 20.5399 24.9355C20.3667 23.6816 20.7664 22.1214 21.5616 20.3177C21.6641 20.0829 22.0279 19.9493 22.3734 20.0191C22.7185 20.0888 22.9149 20.3363 22.8124 20.5713C22.0612 22.2755 21.6805 23.7273 21.8364 24.8558C21.9788 25.8886 22.5891 26.6453 23.8097 27.066C24.0307 27.1421 24.1781 27.3014 24.1669 27.4809C23.9389 30.861 23.6078 34.3014 23.4821 37.6795C23.4843 38.0861 23.6862 38.448 23.997 38.7097C24.2813 38.949 24.6536 39.0994 25.0309 39.1113C25.5096 39.1113 25.8746 38.958 26.1697 38.7061C26.4795 38.4423 26.6759 38.0777 26.6759 37.6718C26.6759 34.3965 26.2173 30.7898 25.9949 27.495C25.9764 27.3216 26.109 27.1494 26.3515 27.0661C27.5718 26.6454 28.1819 25.8887 28.3243 24.8559C28.4802 23.7276 28.1001 22.2758 27.3487 20.5715L27.3486 20.5714ZM34.9802 33.4834L34.9806 33.4769L33.5413 33.2814C33.2048 33.236 32.9811 33.0216 33.0205 32.7938C33.2285 29.9589 33.656 27.084 34.563 24.7959C35.5163 22.3907 37.02 20.6028 39.3788 20.0956C39.7226 20.0219 40.0895 20.1518 40.1979 20.3857C40.2234 20.4405 40.2323 20.4965 40.2264 20.5507C40.3175 26.222 40.5 31.9267 40.5 37.5944C40.4995 38.2332 40.1949 38.8183 39.7071 39.2458C39.1986 39.6914 38.4884 39.9758 37.6991 39.9973C36.7759 40.034 35.9455 39.6906 35.4191 39.1913C34.9628 38.7785 34.7012 38.1717 34.7012 37.6577C34.9582 36.8334 34.9137 34.4766 34.9805 33.4836L34.9802 33.4834ZM36.2729 33.6522C36.1838 34.9766 36.0458 36.3361 36.0057 37.6572C36.0079 37.999 36.167 38.3691 36.4602 38.6561C36.6972 38.9049 37.0973 39.0973 37.5411 39.1112C38.0275 39.1123 38.3802 38.9635 38.6762 38.7036C38.9968 38.4227 39.1975 38.0307 39.1982 37.5962L39.141 34.0415L36.2729 33.6519L36.2729 33.6522ZM39.1262 33.1335L38.9352 21.2168C37.5272 21.8495 36.5318 23.2377 35.8234 25.0251C34.9792 27.1548 34.5614 29.8234 34.3488 32.4853L39.1259 33.1338L39.1262 33.1335ZM25.5523 20.4446C25.5523 20.1992 25.8451 20 26.2057 20C26.5664 20 26.8592 20.1992 26.8592 20.4446V24.496C26.8592 24.7414 26.5664 24.9406 26.2057 24.9406C25.845 24.9406 25.5523 24.7414 25.5523 24.496V20.4446ZM23.3007 20.4446C23.3007 20.1992 23.5935 20 23.9542 20C24.3148 20 24.6076 20.1992 24.6076 20.4446V24.496C24.6076 24.7414 24.3148 24.9406 23.9542 24.9406C23.5935 24.9406 23.3007 24.7414 23.3007 24.496V20.4446Z" fill="#393E46"/>
</svg>
