<svg width="30" height="30" viewBox="0 0 30 30" fill="none" xmlns="http://www.w3.org/2000/svg">
<path d="M28.3843 11.8948L17.1269 0.807551C16.0142 -0.270621 13.9868 -0.270052 12.8665 0.814489L1.61626 11.8946C0.812097 12.6866 0 14.2149 0 15.8425V26.3479C0 28.3619 1.68219 30 3.75016 30H26.2498C28.3175 30 30 28.3618 30 26.3479L29.9997 15.8425C30 14.2149 29.1882 12.6866 28.3837 11.8946L28.3843 11.8948ZM12.5038 27.538L12.5325 17.6891L18.1249 17.7211V27.538L12.5038 27.538ZM27.5007 26.3486C27.5007 27.0047 26.9396 27.5386 26.2507 27.5386H20.6253V17.7217C20.6253 16.3466 19.4892 15.2277 18.093 15.2277H12.5327C11.1365 15.2277 10.0004 16.3466 10.0004 17.7217V27.5386H3.75023C3.06129 27.5386 2.50028 27.0047 2.50028 26.3486V15.8426C2.50028 15.0059 2.94943 14.0634 3.38393 13.6355L14.6269 2.56249C14.6979 2.49395 14.8526 2.46037 15.0062 2.46037C15.1553 2.46037 15.3015 2.49228 15.3671 2.55527L26.6173 13.6354C27.0518 14.0633 27.501 15.0058 27.501 15.8424L27.5007 26.3486Z" fill="#393E46"/>
</svg>
