<svg width="30" height="31" viewBox="0 0 30 31" fill="none" xmlns="http://www.w3.org/2000/svg">
<path d="M16.6232 8.66384C16.6232 9.8698 15.7068 10.8472 14.5765 10.8472C13.4461 10.8472 12.5298 9.8698 12.5298 8.66384C12.5298 7.45813 13.4461 6.48071 14.5765 6.48071C15.7068 6.48071 16.6232 7.45813 16.6232 8.66384Z" fill="#8C8B8B"/>
<path d="M25.5532 1.63698L12.5547 0.608421C11.3412 0.508762 10.1584 0.928168 9.22775 1.78145C8.29653 2.63615 7.73376 3.82292 7.64273 5.12339L6.30737 24.3132C6.21744 25.6158 6.60778 26.8777 7.40686 27.8666C8.20657 28.8562 9.31945 29.4549 10.5405 29.5515L23.5419 30.5809C23.6559 30.5896 23.7686 30.594 23.8817 30.594C26.2669 30.594 28.2737 28.6053 28.4512 26.0658L29.7863 6.87591C29.9725 4.18677 28.074 1.837 25.5536 1.63697L25.5532 1.63698ZM26.3772 25.9012C26.2805 27.289 25.1841 28.3761 23.8813 28.3761C23.8183 28.3761 23.7551 28.374 23.6932 28.3689L10.6941 27.3394C10.0267 27.2867 9.41863 26.9597 8.98149 26.4189C8.54498 25.8782 8.33146 25.188 8.38086 24.4764L8.65634 20.5174L13.5571 16.4401L15.0572 18.3821C15.2357 18.6134 15.4944 18.7579 15.7744 18.7824C16.0547 18.8074 16.3315 18.7091 16.5433 18.5124L22.6886 12.7875L26.9702 17.3746L26.3772 25.9012ZM27.7126 6.71138L27.1741 14.4499L24.0571 11.1101C23.3451 10.3479 22.194 10.3059 21.4343 11.0124L15.9817 16.0916L15.0623 14.9013C14.396 14.0401 13.2272 13.9027 12.401 14.5898L8.86421 17.5326L9.71623 5.28725C9.76568 4.57846 10.0735 3.93008 10.5838 3.46237C11.0446 3.039 11.6172 2.8119 12.2128 2.8119C12.2751 2.8119 12.3377 2.81446 12.4003 2.8196L25.3994 3.84864H25.3992C26.7765 3.95763 27.8143 5.2422 27.7126 6.71164L27.7126 6.71138Z" fill="#8C8B8B"/>
<path d="M6.0435 27.9708L5.91332 27.9743C5.30831 27.9743 4.74493 27.7502 4.28365 27.3261C3.7769 26.8598 3.47017 26.2112 3.42093 25.4999L2.08534 6.30944C2.03567 5.5976 2.24922 4.90793 2.68597 4.36715C3.12271 3.82638 3.73119 3.49985 4.39854 3.44667L6.80886 3.25623C7.38149 3.21071 7.81123 2.67905 7.76877 2.06826C7.7261 1.45745 7.22636 1.00098 6.65527 1.04436L4.24472 1.23527C3.02357 1.33189 1.91052 1.93008 1.11126 2.91944C0.311777 3.90881 -0.0783586 5.17099 0.0117675 6.47325L1.34713 25.6637C1.43772 26.966 1.99852 28.1528 2.92605 29.0061C3.75813 29.7709 4.81892 30.1922 5.91315 30.1922C5.99104 30.1922 6.06871 30.1901 6.14705 30.1856C6.72052 30.1551 7.1623 29.6346 7.1334 29.0231C7.10473 28.4112 6.61308 27.9376 6.04354 27.9708H6.0435Z" fill="#8C8B8B"/>
</svg>
