<svg width="30" height="34" viewBox="0 0 30 34" fill="none" xmlns="http://www.w3.org/2000/svg">
<path d="M14.9434 15.6317C11.225 15.6317 8.25 12.6819 8.25 9.09085C8.25 5.45714 11.2686 2.54999 14.9434 2.54999C18.6182 2.54999 21.6369 5.45714 21.6369 9.09085C21.6369 12.6819 18.6619 15.6317 14.9434 15.6317ZM14.9434 4.26051C12.1873 4.26051 9.99982 6.44079 9.99982 9.09144C9.99982 11.7418 12.1873 13.9221 14.9434 13.9221C17.6995 13.9221 19.887 11.7418 19.887 9.09115C19.887 6.44079 17.6995 4.26051 14.9434 4.26051Z" fill="#393E46"/>
<path d="M27.3243 31.45H3V25.4648C3 20.5056 7.1122 16.4871 12.1871 16.4871H18.1367C23.2115 16.4871 27.3237 20.5056 27.3237 25.4648L27.3243 31.45ZM4.75042 29.7398H25.6182V25.4648C25.6182 21.4463 22.2934 18.1971 18.1809 18.1971H12.1874C8.07516 18.1971 4.75012 21.446 4.75012 25.4648L4.75042 29.7398Z" fill="#393E46"/>
</svg>
