<svg width="30" height="30" viewBox="0 0 30 30" fill="none" xmlns="http://www.w3.org/2000/svg">
<path d="M12.5626 25.1126C15.3911 25.1143 18.1366 24.1559 20.3497 22.3934L27.9532 30L30 27.9525L22.3965 20.3459C24.7649 17.3508 25.6418 13.44 24.7797 9.72036C23.9173 5.99991 21.4095 2.87442 17.9652 1.22776C14.5205 -0.419241 10.5142 -0.408806 7.07874 1.25673C3.64315 2.92193 1.15223 6.06053 0.309631 9.78538C-0.532921 13.5101 0.364858 17.4162 2.74908 20.3989C5.13361 23.3815 8.74498 25.1164 12.5631 25.1134L12.5626 25.1126ZM12.5626 2.89736C15.1233 2.89736 17.5792 3.91507 19.3899 5.72644C21.2007 7.53781 22.218 9.99461 22.218 12.5562C22.218 15.1177 21.2007 17.5745 19.3899 19.3859C17.5792 21.1973 15.1233 22.215 12.5626 22.215C10.0016 22.215 7.54573 21.1973 5.735 19.3859C3.92428 17.5745 2.90727 15.1177 2.90727 12.5562C2.90727 9.99461 3.92428 7.53781 5.735 5.72644C7.54573 3.91507 10.0016 2.89736 12.5626 2.89736Z" fill="#8C8B8B"/>
</svg>
